<?xml version="1.0" encoding="utf-8"?>
<!-- Generator: Adobe Illustrator 25.2.3, SVG Export Plug-In . SVG Version: 6.00 Build 0)  -->
<svg version="1.1" xmlns="http://www.w3.org/2000/svg" xmlns:xlink="http://www.w3.org/1999/xlink" x="0px" y="0px"
	 viewBox="0 0 24 24" style="enable-background:new 0 0 24 24;" xml:space="preserve">
<style type="text/css">
	.st0{fill:#FFFFFF;}
</style>
<g id="Layer_2">
</g>
<g id="mdi-nintendo-switch">
	<path class="st0" d="M10,20.4H7.1c-0.9,0-1.8-0.4-2.5-1c-0.6-0.7-1-1.6-1-2.5V7.1c0-0.9,0.4-1.8,1-2.5c0.7-0.6,1.6-1,2.5-1H10V20.4
		 M7.1,2C4.3,2,2,4.3,2,7.1v9.8C2,19.7,4.3,22,7.1,22h4.5V2H7.1 M5.1,8c0,1,0.8,1.9,1.9,1.9C8,9.9,8.9,9,8.9,8S8,6.1,7,6.1
		C5.9,6.1,5.1,7,5.1,8 M17.6,11c1.1,0,2,0.9,2,2c0,1.1-0.9,2-2,2c-1.1,0-2-0.9-2-2C15.6,11.9,16.5,11,17.6,11 M16.9,22
		c2.8,0,5.1-2.3,5.1-5.1v0V7.1C22,4.3,19.7,2,16.9,2h-3.2v20H16.9z"/>
</g>
</svg>
