<?xml version="1.0" encoding="utf-8"?>
<!-- Generator: Adobe Illustrator 25.2.3, SVG Export Plug-In . SVG Version: 6.00 Build 0)  -->
<svg version="1.1" id="Layer_1" xmlns="http://www.w3.org/2000/svg" xmlns:xlink="http://www.w3.org/1999/xlink" x="0px" y="0px"
	 viewBox="0 0 32 32" style="enable-background:new 0 0 32 32;" xml:space="preserve">
<style type="text/css">
	.st0{fill:#FFFFFF;}
</style>
<path class="st0" d="M0.3,11.6C0.1,11.7,0,11.9,0,12.1v0c0,0.1,0,0.2,0.1,0.3l3.1,6.9c0.1,0.3,0.5,0.5,0.8,0.3c2-0.7,8.9-3,13.4-1.8
	c0,0-4.5,0.3-8.6,3.5c-0.2,0.2-0.3,0.5-0.2,0.8l1.4,3.1l0.5,1.2c0.1,0.3,0.5,0.3,0.7,0.1c1-1.4,2.6-2.1,4.1-2.8
	c1.6-0.6,3.2-1.1,4.9-1.4c1.8-0.3,3.6-0.4,5.4-0.2c0.3,0,0.6-0.2,0.7-0.4l1.4-4.4c0.1-0.3,0-0.5-0.2-0.7c-1.5-1.1-7.7-4.9-18.4-3.4
	c0,0,9.2-5.3,20.8,0.5c0.4,0.2,0.8,0,0.9-0.4L32,9.4c0-0.1,0-0.1,0-0.2v0c0-0.2-0.1-0.4-0.3-0.5c-1.5-0.8-6.4-3.3-13.2-3.3
	C13.2,5.3,6.9,6.8,0.3,11.6z"/>
</svg>
